<svg xmlns="http://www.w3.org/2000/svg" width="91.904" height="102" viewBox="0 0 91.904 102">
  <g id="Group_4" data-name="Group 4" transform="translate(-6.699)">
    <path id="Path_1" data-name="Path 1" d="M98.137,23,55.3,0,12.466,23H12.3v.088l-.3.162h.3v52.5H12l.3.162V76h.164L55.3,99,98.137,76H98.3v-.088l.3-.162h-.3V23.25h.3l-.3-.162V23Z" fill="#68a063" fill-rule="evenodd"/>
    <rect id="Rectangle_1" data-name="Rectangle 1" width="86" height="53" transform="translate(7 26)" fill="#6cc644"/>
    <path id="Path_2" data-name="Path 2" d="M50,102,6.7,78.75H93.3Z" fill="#6cc644"/>
    <path id="Path_3" data-name="Path 3" d="M50,3,93.3,26.25H6.7Z" fill="#6cc644"/>
    <path id="Path_4" data-name="Path 4" d="M35.3,63.917a7.882,7.882,0,0,1-2.386,5.863,8.018,8.018,0,0,1-5.844,2.531l-8.333.1-.052-4.166,8.333-.1a3.909,3.909,0,0,0,2.9-1.286,3.863,3.863,0,0,0,1.214-2.89l-8.333.1a8.394,8.394,0,0,1-8.436-8.229l-.052-4.166a8.394,8.394,0,0,1,8.229-8.436l12.5-.155ZM31.085,59.8,30.93,47.3l-8.333.1a4.044,4.044,0,0,0-2.943,1.287,3.974,3.974,0,0,0-1.172,2.931l.052,4.166a4.126,4.126,0,0,0,4.218,4.115Zm12.292-16.82.071,5.708,2.593-2.616q3.086-3.163,5.669-3.2a8.394,8.394,0,0,1,8.436,8.229l.155,12.5-4.166.052-.155-12.5a4.272,4.272,0,0,0-4.218-4.115,6,6,0,0,0-4.14,2.135L43.507,53.4l.129,10.416-4.166.052-.258-20.832Zm41.664-.517L85.3,63.3l-4.166.052-.071-5.75-2.551,2.657q-3.086,3.163-5.711,3.2a8.252,8.252,0,0,1-8.436-8.229l-.052-4.166a8.322,8.322,0,0,1,8.229-8.436ZM72.593,46.787a4.044,4.044,0,0,0-2.943,1.287A3.974,3.974,0,0,0,68.479,51l.052,4.166a4.126,4.126,0,0,0,4.218,4.115,6,6,0,0,0,4.141-2.135L81,52.933l-.078-6.25Z" fill="rgba(48,48,48,0.81)"/>
    <path id="Path_5" data-name="Path 5" d="M32.917,69.781l-.71-.7-.006.006ZM18.741,72.415l-1,.012.012,1,1-.012Zm-.052-4.166-.012-1-1,.012.012,1Zm11.234-1.389-.7-.71-.012.012-.012.012Zm1.214-2.89,1-.012-.012-1-1,.012Zm3.908-20.884,1-.012-.012-1-1,.012ZM31.085,59.8l.012,1,1-.012-.012-1ZM30.93,47.3l1-.012-.012-1-1,.012Zm-11.275,1.39-.716-.7h0Zm.125,10.041-.71.7.012.012.012.012ZM34.3,63.93a6.883,6.883,0,0,1-2.1,5.147l1.42,1.409A8.88,8.88,0,0,0,36.3,63.9Zm-2.1,5.153a7.019,7.019,0,0,1-5.141,2.229l.025,2a9.016,9.016,0,0,0,6.548-2.833Zm-5.141,2.229-8.333.1.025,2,8.333-.1ZM19.741,72.4l-.052-4.166-2,.025.052,4.166ZM18.7,69.249l8.333-.1-.025-2-8.333.1Zm8.333-.1a4.908,4.908,0,0,0,3.616-1.6L29.2,66.173a2.911,2.911,0,0,1-2.186.972Zm3.592-1.576a4.862,4.862,0,0,0,1.51-3.613l-2,.025a2.865,2.865,0,0,1-.918,2.168Zm.5-4.6-8.333.1.025,2,8.333-.1Zm-8.333.1a7.019,7.019,0,0,1-5.194-2.1L16.2,62.4a9.017,9.017,0,0,0,6.616,2.669Zm-5.194-2.1a7.019,7.019,0,0,1-2.229-5.141l-2,.025A9.016,9.016,0,0,0,16.2,62.4Zm-2.229-5.141-.052-4.166-2,.025.052,4.166Zm-.052-4.166a7.02,7.02,0,0,1,2.1-5.194l-1.432-1.4a9.016,9.016,0,0,0-2.669,6.616Zm2.1-5.194a7.02,7.02,0,0,1,5.141-2.229l-.025-2a9.016,9.016,0,0,0-6.548,2.833Zm5.141-2.229,12.5-.155-.025-2-12.5.155ZM34.045,43.1,34.3,63.93l2-.025-.258-20.832ZM32.085,59.79l-.155-12.5-2,.025.155,12.5ZM30.918,46.3l-8.333.1.025,2,8.333-.1Zm-8.333.1A5.042,5.042,0,0,0,18.939,48l1.432,1.4a3.046,3.046,0,0,1,2.239-.985ZM18.939,48a4.973,4.973,0,0,0-1.456,3.642l2-.025a2.976,2.976,0,0,1,.888-2.221Zm-1.456,3.642.052,4.166,2-.025-.052-4.166Zm.052,4.166a5.112,5.112,0,0,0,1.535,3.635l1.421-1.408a3.116,3.116,0,0,1-.955-2.252Zm1.559,3.658a5.113,5.113,0,0,0,3.672,1.444l-.025-2a3.116,3.116,0,0,1-2.275-.9Zm3.672,1.444,8.333-.1-.025-2-8.333.1ZM43.377,42.982l1-.012-.012-1-1,.012Zm.071,5.708-1,.012.03,2.387,1.681-1.7Zm2.593-2.616.71.7.006-.006Zm11.574-.81-.7.71.006.006.006.006ZM60.3,63.607l.012,1,1-.012-.012-1Zm-4.166.052-1,.012.012,1,1-.012Zm-1.441-15.4-.71.7.012.012.012.012Zm-7.072.921-.716-.7h0ZM43.507,53.4l-.716-.7L42.5,53l.005.414Zm.129,10.416.012,1,1-.012-.012-1Zm-4.166.052-1,.012.012,1,1-.012Zm-.258-20.832-.012-1-1,.012.012,1Zm3.166-.039.071,5.708,2-.025-.071-5.708Zm1.781,6.4,2.593-2.616-1.42-1.408-2.593,2.616Zm2.6-2.621c2-2.045,3.644-2.877,4.966-2.894l-.025-2c-2.123.026-4.253,1.325-6.373,3.5Zm4.966-2.894a6.931,6.931,0,0,1,5.188,2.1l1.409-1.42A8.928,8.928,0,0,0,51.7,41.879Zm5.2,2.107a6.931,6.931,0,0,1,2.223,5.135l2-.025a8.928,8.928,0,0,0-2.839-6.553Zm2.223,5.135.155,12.5,2-.025-.155-12.5Zm1.143,11.487-4.166.052.025,2,4.166-.052Zm-3.154,1.039-.155-12.5-2,.025.155,12.5Zm-.155-12.5a4.907,4.907,0,0,0-1.6-3.616l-1.372,1.455a2.911,2.911,0,0,1,.972,2.186ZM55.4,47.555a4.908,4.908,0,0,0-3.655-1.51l.025,2a2.911,2.911,0,0,1,2.209.918Zm-3.655-1.51a6.982,6.982,0,0,0-4.844,2.437l1.432,1.4a5.031,5.031,0,0,1,3.437-1.833Zm-4.844,2.437L42.791,52.7l1.432,1.4,4.115-4.218Zm-4.4,4.929.129,10.416,2-.025-.129-10.416Zm1.117,9.4-4.166.052.025,2,4.166-.052ZM40.47,63.853l-.259-20.832-2,.025.258,20.832ZM39.223,44.034l4.166-.052-.025-2-4.166.052Zm45.817-1.569,1-.012-.012-1-1,.012ZM85.3,63.3l.012,1,1-.012-.012-1Zm-4.166.052-1,.012.012,1,1-.012Zm-.071-5.75,1-.012-.03-2.442L80.34,56.907Zm-2.551,2.657.716.7.006-.006Zm-11.657.853-.7.71.006.006.006.006Zm-.2-15.957-.716-.7Zm2.995,2.921-.716-.7h0Zm.125,10.041-.71.7.012.012.012.012Zm7.114-.963-.716-.7h0ZM81,52.933l.716.7.289-.3L82,52.92Zm-.078-6.25,1-.012-.012-1-1,.012Zm3.115-4.206L84.3,63.309l2-.025-.258-20.832ZM85.287,62.3l-4.166.052.025,2,4.166-.052Zm-3.154,1.039-.071-5.75-2,.025.071,5.75Zm-1.793-6.43L77.79,59.563l1.443,1.385,2.551-2.657ZM77.8,59.558C75.8,61.6,74.14,62.435,72.788,62.452l.025,2c2.147-.027,4.291-1.321,6.414-3.5Zm-5.007,2.895a7.138,7.138,0,0,1-5.242-2.065l-1.384,1.444a9.135,9.135,0,0,0,6.651,2.621ZM67.559,60.4a7.137,7.137,0,0,1-2.194-5.189l-2,.025a9.135,9.135,0,0,0,2.785,6.584ZM65.364,55.21l-.052-4.166-2,.025.052,4.166Zm-.052-4.166a7,7,0,0,1,2.059-5.194l-1.432-1.4a9,9,0,0,0-2.628,6.615Zm2.059-5.194a7.068,7.068,0,0,1,5.182-2.23l-.025-2a9.065,9.065,0,0,0-6.589,2.833Zm5.182-2.23,12.5-.155-.025-2-12.5.155Zm.027,2.167a5.043,5.043,0,0,0-3.646,1.588l1.432,1.4a3.047,3.047,0,0,1,2.239-.985Zm-3.646,1.588a4.973,4.973,0,0,0-1.456,3.642l2-.025a2.976,2.976,0,0,1,.888-2.221Zm-1.456,3.642.052,4.166,2-.025-.052-4.166Zm.052,4.166a5.112,5.112,0,0,0,1.535,3.635l1.421-1.408a3.115,3.115,0,0,1-.955-2.252Zm1.559,3.658a5.113,5.113,0,0,0,3.672,1.444l-.025-2a3.115,3.115,0,0,1-2.275-.9Zm3.672,1.444A6.982,6.982,0,0,0,77.6,57.849l-1.432-1.4a5.03,5.03,0,0,1-3.437,1.833ZM77.6,57.849l4.115-4.218-1.432-1.4-4.115,4.218ZM82,52.92l-.078-6.25-2,.025L80,52.945Zm-1.09-7.237-8.333.1.025,2,8.333-.1Z" fill="rgba(48,48,48,0.81)"/>
    <path id="Path_6" data-name="Path 6" d="M33.3,63.917a7.882,7.882,0,0,1-2.386,5.863,8.018,8.018,0,0,1-5.844,2.531l-8.333.1-.052-4.166,8.333-.1a3.909,3.909,0,0,0,2.9-1.286,3.863,3.863,0,0,0,1.214-2.89l-8.333.1A8.018,8.018,0,0,1,14.9,61.687a8.017,8.017,0,0,1-2.531-5.844l-.052-4.166a8.018,8.018,0,0,1,2.385-5.9,8.018,8.018,0,0,1,5.844-2.531l12.5-.155ZM29.085,59.8,28.93,47.3l-8.333.1a4.044,4.044,0,0,0-2.943,1.287,3.974,3.974,0,0,0-1.172,2.931l.052,4.166a4.126,4.126,0,0,0,4.218,4.115Zm12.292-16.82.071,5.708,2.593-2.616q3.086-3.163,5.669-3.2a8.394,8.394,0,0,1,8.436,8.229l.155,12.5-4.166.052-.155-12.5a4.272,4.272,0,0,0-4.218-4.115,6,6,0,0,0-4.14,2.135L41.507,53.4l.129,10.416-4.166.052-.258-20.832Zm41.664-.517L83.3,63.3l-4.166.052-.071-5.75-2.551,2.657q-3.086,3.163-5.711,3.2a8.252,8.252,0,0,1-8.436-8.229l-.052-4.166a8.322,8.322,0,0,1,8.229-8.436ZM70.593,46.787a4.044,4.044,0,0,0-2.943,1.287A3.974,3.974,0,0,0,66.479,51l.052,4.166a4.126,4.126,0,0,0,4.218,4.115,6,6,0,0,0,4.141-2.135L79,52.933l-.078-6.25Z" fill="#303030"/>
    <path id="Path_7" data-name="Path 7" d="M30.917,69.781l-.71-.7-.006.006ZM16.741,72.415l-1,.012.012,1,1-.012Zm-.052-4.166-.012-1-1,.012.012,1Zm11.234-1.389-.7-.71-.012.012-.012.012Zm1.214-2.89,1-.012-.012-1-1,.012Zm3.908-20.884,1-.012-.012-1-1,.012ZM29.085,59.8l.012,1,1-.012-.012-1ZM28.93,47.3l1-.012-.012-1-1,.012Zm-11.275,1.39-.716-.7h0Zm.125,10.041-.71.7.012.012.012.012ZM32.3,63.93a6.883,6.883,0,0,1-2.1,5.147l1.42,1.409A8.88,8.88,0,0,0,34.3,63.9Zm-2.1,5.153a7.019,7.019,0,0,1-5.141,2.229l.025,2a9.016,9.016,0,0,0,6.548-2.833Zm-5.141,2.229-8.333.1.025,2,8.333-.1ZM17.741,72.4l-.052-4.166-2,.025.052,4.166ZM16.7,69.249l8.333-.1-.025-2-8.333.1Zm8.333-.1a4.908,4.908,0,0,0,3.616-1.6L27.2,66.173a2.911,2.911,0,0,1-2.186.972Zm3.592-1.576a4.862,4.862,0,0,0,1.51-3.613l-2,.025a2.865,2.865,0,0,1-.918,2.168Zm.5-4.6-8.333.1.025,2,8.333-.1Zm-8.333.1a7.019,7.019,0,0,1-5.194-2.1L14.2,62.4a9.017,9.017,0,0,0,6.616,2.669Zm-5.194-2.1a7.019,7.019,0,0,1-2.229-5.141l-2,.025A9.016,9.016,0,0,0,14.2,62.4Zm-2.229-5.141-.052-4.166-2,.025.052,4.166Zm-.052-4.166a7.02,7.02,0,0,1,2.1-5.194l-1.432-1.4a9.016,9.016,0,0,0-2.669,6.616Zm2.1-5.194a7.02,7.02,0,0,1,5.141-2.229l-.025-2a9.016,9.016,0,0,0-6.548,2.833Zm5.141-2.229,12.5-.155-.025-2-12.5.155ZM32.045,43.1,32.3,63.93l2-.025-.258-20.832ZM30.085,59.79l-.155-12.5-2,.025.155,12.5ZM28.918,46.3l-8.333.1.025,2,8.333-.1Zm-8.333.1A5.042,5.042,0,0,0,16.939,48l1.432,1.4a3.046,3.046,0,0,1,2.239-.985ZM16.939,48a4.973,4.973,0,0,0-1.456,3.642l2-.025a2.976,2.976,0,0,1,.888-2.221Zm-1.456,3.642.052,4.166,2-.025-.052-4.166Zm.052,4.166a5.112,5.112,0,0,0,1.535,3.635l1.421-1.408a3.116,3.116,0,0,1-.955-2.252Zm1.559,3.658a5.113,5.113,0,0,0,3.672,1.444l-.025-2a3.116,3.116,0,0,1-2.275-.9Zm3.672,1.444,8.333-.1-.025-2-8.333.1ZM41.377,42.982l1-.012-.012-1-1,.012Zm.071,5.708-1,.012.03,2.387,1.681-1.7Zm2.593-2.616.71.7.006-.006Zm11.574-.81-.7.71.006.006.006.006ZM58.3,63.607l.012,1,1-.012-.012-1Zm-4.166.052-1,.012.012,1,1-.012Zm-1.441-15.4-.71.7.012.012.012.012Zm-7.072.921-.716-.7h0ZM41.507,53.4l-.716-.7L40.5,53l.005.414Zm.129,10.416.012,1,1-.012-.012-1Zm-4.166.052-1,.012.012,1,1-.012Zm-.258-20.832-.012-1-1,.012.012,1Zm3.166-.039.071,5.708,2-.025-.071-5.708Zm1.781,6.4,2.593-2.616-1.42-1.408-2.593,2.616Zm2.6-2.621c2-2.045,3.644-2.877,4.966-2.894l-.025-2c-2.123.026-4.253,1.325-6.373,3.5Zm4.966-2.894a6.931,6.931,0,0,1,5.188,2.1l1.409-1.42A8.928,8.928,0,0,0,49.7,41.879Zm5.2,2.107a6.931,6.931,0,0,1,2.223,5.135l2-.025a8.928,8.928,0,0,0-2.839-6.553Zm2.223,5.135.155,12.5,2-.025-.155-12.5Zm1.143,11.487-4.166.052.025,2,4.166-.052Zm-3.154,1.039-.155-12.5-2,.025.155,12.5Zm-.155-12.5a4.907,4.907,0,0,0-1.6-3.616l-1.372,1.455a2.911,2.911,0,0,1,.972,2.186ZM53.4,47.555a4.908,4.908,0,0,0-3.655-1.51l.025,2a2.911,2.911,0,0,1,2.209.918Zm-3.655-1.51a6.982,6.982,0,0,0-4.844,2.437l1.432,1.4a5.031,5.031,0,0,1,3.437-1.833Zm-4.844,2.437L40.791,52.7l1.432,1.4,4.115-4.218Zm-4.4,4.929.129,10.416,2-.025-.129-10.416Zm1.117,9.4-4.166.052.025,2,4.166-.052ZM38.47,63.853l-.259-20.832-2,.025.258,20.832ZM37.223,44.034l4.166-.052-.025-2-4.166.052Zm45.817-1.569,1-.012-.012-1-1,.012ZM83.3,63.3l.012,1,1-.012-.012-1Zm-4.166.052-1,.012.012,1,1-.012Zm-.071-5.75,1-.012-.03-2.442L78.34,56.907Zm-2.551,2.657.716.7.006-.006Zm-11.657.853-.7.71.006.006.006.006Zm-.2-15.957-.716-.7Zm2.995,2.921-.716-.7h0Zm.125,10.041-.71.7.012.012.012.012Zm7.114-.963-.716-.7h0ZM79,52.933l.716.7.289-.3L80,52.92Zm-.078-6.25,1-.012-.012-1-1,.012Zm3.115-4.206L82.3,63.309l2-.025-.258-20.832ZM83.287,62.3l-4.166.052.025,2,4.166-.052Zm-3.154,1.039-.071-5.75-2,.025.071,5.75Zm-1.793-6.43L75.79,59.563l1.443,1.385,2.551-2.657ZM75.8,59.558C73.8,61.6,72.14,62.435,70.788,62.452l.025,2c2.147-.027,4.291-1.321,6.414-3.5Zm-5.007,2.895a7.138,7.138,0,0,1-5.242-2.065l-1.384,1.444a9.135,9.135,0,0,0,6.651,2.621ZM65.559,60.4a7.137,7.137,0,0,1-2.194-5.189l-2,.025a9.135,9.135,0,0,0,2.785,6.584ZM63.364,55.21l-.052-4.166-2,.025.052,4.166Zm-.052-4.166a7,7,0,0,1,2.059-5.194l-1.432-1.4a9,9,0,0,0-2.628,6.615Zm2.059-5.194a7.068,7.068,0,0,1,5.182-2.23l-.025-2a9.065,9.065,0,0,0-6.589,2.833Zm5.182-2.23,12.5-.155-.025-2-12.5.155Zm.027,2.167a5.043,5.043,0,0,0-3.646,1.588l1.432,1.4a3.047,3.047,0,0,1,2.239-.985Zm-3.646,1.588a4.973,4.973,0,0,0-1.456,3.642l2-.025a2.976,2.976,0,0,1,.888-2.221Zm-1.456,3.642.052,4.166,2-.025-.052-4.166Zm.052,4.166a5.112,5.112,0,0,0,1.535,3.635l1.421-1.408a3.115,3.115,0,0,1-.955-2.252Zm1.559,3.658a5.113,5.113,0,0,0,3.672,1.444l-.025-2a3.115,3.115,0,0,1-2.275-.9Zm3.672,1.444A6.982,6.982,0,0,0,75.6,57.849l-1.432-1.4a5.03,5.03,0,0,1-3.437,1.833ZM75.6,57.849l4.115-4.218-1.432-1.4-4.115,4.218ZM80,52.92l-.078-6.25-2,.025L78,52.945Zm-1.09-7.237-8.333.1.025,2,8.333-.1Z" fill="#303030"/>
  </g>
</svg>
